<svg width="29" height="29" viewBox="0 0 29 29" fill="none" xmlns="http://www.w3.org/2000/svg">
<path d="M10.5268 25.7059H9.0588C8.9113 25.7059 8.76616 25.6688 8.63666 25.5982C8.50716 25.5276 8.39743 25.4256 8.3175 25.3017C8.23757 25.1777 8.19 25.0357 8.17914 24.8886C8.16828 24.7414 8.19446 24.594 8.25531 24.4596L11.8101 16.6149L6.47241 16.4964L4.52572 18.855C4.15458 19.3215 3.85844 19.5294 3.10292 19.5294H2.11469C1.95822 19.5345 1.80284 19.5017 1.66173 19.434C1.52061 19.3662 1.39791 19.2654 1.30402 19.1401C1.17277 18.9631 1.04373 18.6631 1.16947 18.2351L2.26248 14.3197C2.27075 14.2905 2.28068 14.2612 2.29171 14.2326C2.29226 14.2298 2.29226 14.227 2.29171 14.2243C2.28032 14.1956 2.27056 14.1664 2.26248 14.1366L1.16836 10.1964C1.0498 9.77669 1.17939 9.48331 1.30954 9.3107C1.39693 9.19473 1.51032 9.10089 1.64058 9.03672C1.77084 8.97255 1.91434 8.93983 2.05954 8.94121H3.10292C3.66708 8.94121 4.21469 9.19434 4.53675 9.60298L6.44318 11.9219L11.8101 11.8425L8.25641 4.01162C8.19548 3.8773 8.16919 3.72986 8.17994 3.58277C8.1907 3.43568 8.23815 3.29363 8.31796 3.1696C8.39777 3.04558 8.5074 2.94354 8.63682 2.87282C8.76623 2.80209 8.91132 2.76493 9.0588 2.76474H10.5428C10.7498 2.7689 10.9533 2.81965 11.138 2.91321C11.3228 3.00677 11.484 3.14074 11.6099 3.30518L18.506 11.6875L21.6919 11.6037C21.9252 11.591 22.5715 11.5866 22.7209 11.5866C25.7684 11.5883 27.5882 12.5776 27.5882 14.2353C27.5882 14.757 27.3798 15.7243 25.9851 16.3397C25.1617 16.7037 24.0632 16.8879 22.7198 16.8879C22.572 16.8879 21.9274 16.8835 21.6908 16.8708L18.5055 16.7859L11.5923 25.1682C11.4663 25.3319 11.3051 25.4653 11.1207 25.5583C10.9363 25.6514 10.7333 25.7018 10.5268 25.7059Z" fill="black" fill-opacity="0.8"/>
</svg>
